<svg width="41" height="92" viewBox="0 0 41 92" fill="none" xmlns="http://www.w3.org/2000/svg">
<rect width="41" height="92" fill="#FF0000"/>
<path d="M30 68.425L30 71.85L19.125 79.8L30 79.8L30 83.35L13.325 83.35L13.325 79.7L23.8 71.975L13.325 71.975L13.325 68.425L30 68.425ZM30.3 57.2371C30.3 59.7538 29.4917 61.8371 27.875 63.4871C26.2417 65.1204 24.175 65.9371 21.675 65.9371C19.175 65.9371 17.1167 65.1204 15.5 63.4871C13.8667 61.8371 13.05 59.7538 13.05 57.2371C13.05 54.7038 13.8583 52.6204 15.475 50.9871C17.0917 49.3371 19.1583 48.5121 21.675 48.5121C24.1917 48.5121 26.2583 49.3371 27.875 50.9871C29.4917 52.6204 30.3 54.7038 30.3 57.2371ZM25.6 60.9121C26.6333 59.9788 27.15 58.7538 27.15 57.2371C27.15 55.7204 26.6333 54.4954 25.6 53.5621C24.5667 52.6288 23.2583 52.1621 21.675 52.1621C20.0917 52.1621 18.7833 52.6288 17.75 53.5621C16.7167 54.4954 16.2 55.7204 16.2 57.2371C16.2 58.7538 16.7167 59.9788 17.75 60.9121C18.7833 61.8288 20.0917 62.2871 21.675 62.2871C23.2583 62.2871 24.5667 61.8288 25.6 60.9121ZM30 24.0744L30 28.1244L27.175 29.1494L27.175 36.2994L30 37.3494L30 41.3994L13.325 34.9494L13.325 30.4994L30 24.0744ZM24.05 30.1244L16.875 32.7244L24.05 35.3244L24.05 30.1244ZM30 9.03457L30 13.1096L24.075 16.3846L24.075 18.9846L30 18.9846L30 22.5346L13.325 22.5346L13.325 14.7346C13.325 13.0179 13.825 11.6596 14.825 10.6596C15.825 9.6429 17.1167 9.13457 18.7 9.13457C20.0667 9.13457 21.175 9.4929 22.025 10.2096C22.875 10.9096 23.4167 11.7679 23.65 12.7846L30 9.03457ZM20.95 15.2596C20.95 14.5262 20.75 13.9262 20.35 13.4596C19.9333 12.9929 19.3833 12.7596 18.7 12.7596C18.0167 12.7596 17.475 12.9929 17.075 13.4596C16.6583 13.9262 16.45 14.5262 16.45 15.2596L16.45 18.9846L20.95 18.9846L20.95 15.2596Z" fill="white"/>
</svg>
