<svg width="41" height="92" viewBox="0 0 41 92" fill="none" xmlns="http://www.w3.org/2000/svg">
<rect width="41" height="92" fill="#FF0000"/>
<path d="M29.288 77.5273C29.288 79.9433 28.512 81.9433 26.96 83.5273C25.392 85.0953 23.408 85.8793 21.008 85.8793C18.608 85.8793 16.632 85.0953 15.08 83.5273C13.512 81.9433 12.728 79.9433 12.728 77.5273C12.728 75.0953 13.504 73.0953 15.056 71.5273C16.608 69.9433 18.592 69.1513 21.008 69.1513C23.424 69.1513 25.408 69.9433 26.96 71.5273C28.512 73.0953 29.288 75.0953 29.288 77.5273ZM24.776 81.0553C25.768 80.1593 26.264 78.9833 26.264 77.5273C26.264 76.0713 25.768 74.8953 24.776 73.9993C23.784 73.1033 22.528 72.6553 21.008 72.6553C19.488 72.6553 18.232 73.1033 17.24 73.9993C16.248 74.8953 15.752 76.0713 15.752 77.5273C15.752 78.9833 16.248 80.1593 17.24 81.0553C18.232 81.9353 19.488 82.3753 21.008 82.3753C22.528 82.3753 23.784 81.9353 24.776 81.0553ZM29 52.4317L29 55.7197L18.56 63.3517L29 63.3517L29 66.7597L12.992 66.7597L12.992 63.2557L23.048 55.8397L12.992 55.8397L12.992 52.4317L29 52.4317ZM29 28.2067L29 32.0947L26.288 33.0787L26.288 39.9427L29 40.9507L29 44.8387L12.992 38.6467L12.992 34.3747L29 28.2067ZM23.288 34.0147L16.4 36.5107L23.288 39.0067L23.288 34.0147ZM29 23.3205L29 26.7285L12.992 26.7285L12.992 23.3205L29 23.3205ZM29 7.18256L29 11.0946L23.312 14.2386L23.312 16.7346L29 16.7346L29 20.1426L12.992 20.1426L12.992 12.6546C12.992 11.0066 13.472 9.70256 14.432 8.74256C15.392 7.76656 16.632 7.27856 18.152 7.27856C19.464 7.27856 20.528 7.62256 21.344 8.31056C22.16 8.98256 22.68 9.80656 22.904 10.7826L29 7.18256ZM20.312 13.1586C20.312 12.4546 20.12 11.8786 19.736 11.4306C19.336 10.9826 18.808 10.7586 18.152 10.7586C17.496 10.7586 16.976 10.9826 16.592 11.4306C16.192 11.8786 15.992 12.4546 15.992 13.1586L15.992 16.7346L20.312 16.7346L20.312 13.1586Z" fill="white"/>
</svg>
