<svg width="41" height="92" viewBox="0 0 41 92" fill="none" xmlns="http://www.w3.org/2000/svg">
<rect width="41" height="92" fill="#FF0000"/>
<path d="M10.825 77.425C10.925 76.75 10.975 75.675 10.975 74.825C10.975 73.25 10.975 66.675 10.975 65.225C10.975 64.425 10.925 63.2 10.825 62.525L14.075 62.525C14.025 63.175 13.975 64.35 13.975 65.275C13.975 66.65 13.975 73.35 13.975 74.825C13.975 75.65 14 76.7 14.075 77.425L10.825 77.425ZM18.1 60.4C18.425 60.575 18.875 60.8 19.125 60.875C21.55 61.65 24 62.725 26.05 64.575C28.875 67.1 30.55 70.3 31.475 73.5L28.65 76C27.85 72.225 26.225 69.25 24.25 67.325C22.9 66 21.325 65.2 19.95 64.775C19.95 66.025 19.95 74.6 19.95 76.825C19.95 77.45 19.975 78.7 20.05 79.75L16.8 79.75C16.9 78.675 16.975 77.625 16.975 76.825C16.975 75.125 16.975 66.175 16.975 64.475C16.975 63.65 16.875 62.975 16.7 62.625L18.1 60.4ZM20.3 56.45C19.15 51.975 17.525 48.325 15.8 45.525C14.225 42.975 11.725 40.125 9.75 38.5L12.3 35.8C14.6 38.075 16.95 41.125 18.725 44.075C20.4 46.9 22.275 50.95 23.45 54.9L20.3 56.45ZM17.425 46.05L16.575 42.5L27.85 42.5C28.95 42.5 30.5 42.45 31.125 42.275L31.125 46.25C30.525 46.15 28.95 46.05 27.85 46.05L17.425 46.05ZM8.95 14.025C9.9 13.4 11.325 12.575 12.25 12.125L13.125 14.2C12.075 14.7 10.8 15.45 9.8 16.1L8.95 14.025ZM8.3 10.55C9.225 9.9 10.725 9.025 11.625 8.55L12.5 10.625C11.475 11.15 10.075 11.925 9.15 12.625L8.3 10.55ZM13.65 11.45C14.125 11.675 14.85 11.875 15.375 12C17.825 12.575 21.725 13.675 24.5 15.75C27.5 18.025 29.975 21.35 31.4 25.8L28.4 28.525C27.25 23.575 25.075 20.75 22.55 18.75C20.475 17.075 17.625 16.125 15.475 15.8C15.475 17.3 15.475 25.575 15.475 27.45C15.475 28.575 15.55 29.775 15.6 30.425L12.05 30.425C12.15 29.675 12.275 28.275 12.275 27.45C12.275 25.575 12.275 17.275 12.275 15.875C12.275 15.375 12.25 14.575 12.075 13.925L13.65 11.45Z" fill="white"/>
</svg>
