<svg width="41" height="92" viewBox="0 0 41 92" fill="none" xmlns="http://www.w3.org/2000/svg">
<rect width="41" height="92" fill="#FF0000"/>
<path d="M29 59.75L29 70.35L12.325 70.35L12.325 66.8L25.875 66.8L25.875 59.75L29 59.75ZM29 53.7141L29 57.2641L12.325 57.2641L12.325 53.7141L29 53.7141ZM29 41.2787L29 45.7287L12.325 52.1787L12.325 48.1287L25.15 43.5037L12.325 38.9037L12.325 34.8537L29 41.2787ZM29 21.5139L29 33.3139L12.325 33.3139L12.325 21.5139L15.45 21.5139L15.45 29.7639L18.975 29.7639L18.975 21.6889L22.1 21.6889L22.1 29.7639L25.875 29.7639L25.875 21.5139L29 21.5139Z" fill="white"/>
</svg>
