<svg width="41" height="92" viewBox="0 0 41 92" fill="none" xmlns="http://www.w3.org/2000/svg">
<rect width="41" height="92" fill="#FF0000"/>
<path d="M27 75.24L27 84.68L13.66 84.68L13.66 75.24L16.16 75.24L16.16 81.84L18.98 81.84L18.98 75.38L21.48 75.38L21.48 81.84L24.5 81.84L24.5 75.24L27 75.24ZM27 61.0798L27 63.8198L18.3 70.1798L27 70.1798L27 73.0198L13.66 73.0198L13.66 70.0998L22.04 63.9198L13.66 63.9198L13.66 61.0798L27 61.0798ZM27 46.0323L27 49.5923L13.66 54.7523L13.66 51.5123L23.92 47.8123L13.66 44.1323L13.66 40.8923L27 46.0323ZM27 36.8205L27 39.6605L13.66 39.6605L13.66 36.8205L27 36.8205ZM27 26.8722L27 30.4322L13.66 35.5922L13.66 32.3522L23.92 28.6522L13.66 24.9722L13.66 21.7322L27 26.8722ZM27.24 14.5709C27.24 16.5843 26.5933 18.2509 25.3 19.5709C23.9933 20.8776 22.34 21.5309 20.34 21.5309C18.34 21.5309 16.6933 20.8776 15.4 19.5709C14.0933 18.2509 13.44 16.5843 13.44 14.5709C13.44 12.5443 14.0867 10.8776 15.38 9.57094C16.6733 8.25094 18.3267 7.59094 20.34 7.59094C22.3533 7.59094 24.0067 8.25094 25.3 9.57094C26.5933 10.8776 27.24 12.5443 27.24 14.5709ZM23.48 17.5109C24.3067 16.7643 24.72 15.7843 24.72 14.5709C24.72 13.3576 24.3067 12.3776 23.48 11.6309C22.6533 10.8843 21.6067 10.5109 20.34 10.5109C19.0733 10.5109 18.0267 10.8843 17.2 11.6309C16.3733 12.3776 15.96 13.3576 15.96 14.5709C15.96 15.7843 16.3733 16.7643 17.2 17.5109C18.0267 18.2443 19.0733 18.6109 20.34 18.6109C21.6067 18.6109 22.6533 18.2443 23.48 17.5109Z" fill="white"/>
</svg>
