<svg width="41" height="93" viewBox="0 0 41 93" fill="none" xmlns="http://www.w3.org/2000/svg">
<rect width="41" height="92" fill="#FF0000"/>
<path d="M13.021 8.291C13.75 8.399 14.911 8.453 15.829 8.453C17.53 8.453 24.631 8.453 26.197 8.453C27.061 8.453 28.384 8.399 29.113 8.291V11.801C28.411 11.747 27.142 11.693 26.143 11.693C24.658 11.693 17.422 11.693 15.829 11.693C14.938 11.693 13.804 11.72 13.021 11.801V8.291ZM31.408 16.148C31.219 16.499 30.976 16.985 30.895 17.255C30.058 19.874 28.897 22.52 26.899 24.734C24.172 27.785 20.716 29.594 17.26 30.593L14.56 27.542C18.637 26.678 21.85 24.923 23.929 22.79C25.36 21.332 26.224 19.631 26.683 18.146C25.333 18.146 16.072 18.146 13.669 18.146C12.994 18.146 11.644 18.173 10.51 18.254V14.744C11.671 14.852 12.805 14.933 13.669 14.933C15.505 14.933 25.171 14.933 27.007 14.933C27.898 14.933 28.627 14.825 29.005 14.636L31.408 16.148Z" fill="white"/>
<path d="M8.674 44.9698C13.507 43.7278 17.449 41.9728 20.473 40.1098C23.227 38.4088 26.305 35.7088 28.06 33.5758L30.976 36.3298C28.519 38.8138 25.225 41.3518 22.039 43.2688C18.988 45.0778 14.614 47.1028 10.348 48.3718L8.674 44.9698ZM19.906 41.8648L23.74 40.9468V53.1238C23.74 54.3118 23.794 55.9858 23.983 56.6608H19.69C19.798 56.0128 19.906 54.3118 19.906 53.1238V41.8648Z" fill="white"/>
<path d="M26.493 61.3383C27.168 62.3643 28.059 63.9033 28.545 64.9023L26.304 65.8473C25.764 64.7133 24.954 63.3363 24.252 62.2563L26.493 61.3383ZM30.246 60.6363C30.948 61.6353 31.893 63.2553 32.406 64.2273L30.165 65.1723C29.598 64.0653 28.761 62.5533 28.005 61.5543L30.246 60.6363ZM29.274 66.4143C29.031 66.9273 28.815 67.7103 28.68 68.2773C28.059 70.9233 26.871 75.1353 24.63 78.1323C22.173 81.3723 18.582 84.0453 13.776 85.5843L10.833 82.3443C16.179 81.1023 19.23 78.7533 21.39 76.0263C23.199 73.7853 24.225 70.7073 24.576 68.3853C22.956 68.3853 14.019 68.3853 11.994 68.3853C10.779 68.3853 9.483 68.4663 8.781 68.5203V64.6863C9.591 64.7943 11.103 64.9293 11.994 64.9293C14.019 64.9293 22.983 64.9293 24.495 64.9293C25.035 64.9293 25.899 64.9023 26.601 64.7133L29.274 66.4143Z" fill="white"/>
</svg>
