<svg width="81" height="23" viewBox="0 0 81 23" fill="none" xmlns="http://www.w3.org/2000/svg">
<rect width="76.1881" height="23" rx="4" fill="#6BDB00"/>
<path d="M81 11.5L76.1881 16L76.1881 7L81 11.5Z" fill="#6BDB00"/>
<path d="M13.944 16H11.838L11.305 14.531H7.587L7.041 16H4.935L8.289 7.329H10.603L13.944 16ZM10.798 12.906L9.446 9.175L8.094 12.906H10.798ZM18.4994 16.156C17.182 16.156 16.0814 15.74 15.1974 14.908C14.322 14.0673 13.8844 12.9883 13.8844 11.671C13.8844 10.3537 14.322 9.279 15.1974 8.447C16.0814 7.60633 17.182 7.186 18.4994 7.186C20.12 7.186 21.329 7.89233 22.1264 9.305L20.5404 10.085C20.3497 9.721 20.0681 9.422 19.6954 9.188C19.3314 8.94533 18.9327 8.824 18.4994 8.824C17.7107 8.824 17.0607 9.09267 16.5494 9.63C16.038 10.1673 15.7824 10.8477 15.7824 11.671C15.7824 12.4943 16.038 13.1747 16.5494 13.712C17.0607 14.2493 17.7107 14.518 18.4994 14.518C18.9327 14.518 19.3314 14.401 19.6954 14.167C20.0681 13.933 20.3497 13.6297 20.5404 13.257L22.1264 14.024C21.303 15.4453 20.094 16.156 18.4994 16.156ZM27.0862 16H25.2272V8.954H22.6922V7.329H29.6082V8.954H27.0862V16ZM32.6376 16H30.7916V7.329H32.6376V16ZM39.104 16H36.79L33.436 7.329H35.542L37.947 13.998L40.339 7.329H42.445L39.104 16ZM50.7223 16H48.6163L48.0833 14.531H44.3653L43.8193 16H41.7133L45.0673 7.329H47.3813L50.7223 16ZM47.5763 12.906L46.2243 9.175L44.8723 12.906H47.5763ZM54.942 16H51.523V7.329H54.942C56.3027 7.329 57.4077 7.72767 58.257 8.525C59.115 9.32233 59.544 10.371 59.544 11.671C59.544 12.971 59.1194 14.0197 58.27 14.817C57.4207 15.6057 56.3114 16 54.942 16ZM54.942 14.375C55.774 14.375 56.4327 14.115 56.918 13.595C57.412 13.075 57.659 12.4337 57.659 11.671C57.659 10.8737 57.4207 10.2237 56.944 9.721C56.4674 9.20967 55.8 8.954 54.942 8.954H53.369V14.375H54.942ZM64.9621 16.156C63.6534 16.156 62.5701 15.7357 61.7121 14.895C60.8628 14.0457 60.4381 12.971 60.4381 11.671C60.4381 10.371 60.8628 9.30067 61.7121 8.46C62.5701 7.61067 63.6534 7.186 64.9621 7.186C66.2794 7.186 67.3628 7.60633 68.2121 8.447C69.0701 9.28767 69.4991 10.3623 69.4991 11.671C69.4991 12.9797 69.0701 14.0543 68.2121 14.895C67.3628 15.7357 66.2794 16.156 64.9621 16.156ZM63.0511 13.712C63.5364 14.2493 64.1734 14.518 64.9621 14.518C65.7508 14.518 66.3878 14.2493 66.8731 13.712C67.3584 13.1747 67.6011 12.4943 67.6011 11.671C67.6011 10.8477 67.3584 10.1673 66.8731 9.63C66.3878 9.09267 65.7508 8.824 64.9621 8.824C64.1734 8.824 63.5364 9.09267 63.0511 9.63C62.5744 10.1673 62.3361 10.8477 62.3361 11.671C62.3361 12.4943 62.5744 13.1747 63.0511 13.712Z" fill="#270052"/>
</svg>
