<svg width="81" height="23" viewBox="0 0 81 23" fill="none" xmlns="http://www.w3.org/2000/svg">
<rect width="76.1881" height="23" rx="4" fill="#6BDB00"/>
<path d="M81 11.5L76.1881 16L76.1881 7L81 11.5Z" fill="#6BDB00"/>
<path d="M11.277 16H7.858V7.329H11.277C12.6377 7.329 13.7427 7.72767 14.592 8.525C15.45 9.32233 15.879 10.371 15.879 11.671C15.879 12.971 15.4543 14.0197 14.605 14.817C13.7557 15.6057 12.6463 16 11.277 16ZM11.277 14.375C12.109 14.375 12.7677 14.115 13.253 13.595C13.747 13.075 13.994 12.4337 13.994 11.671C13.994 10.8737 13.7557 10.2237 13.279 9.721C12.8023 9.20967 12.135 8.954 11.277 8.954H9.704V14.375H11.277ZM19.0351 16H17.1891V7.329H19.0351V16ZM23.8374 16.156C22.2948 16.156 21.0728 15.6967 20.1714 14.778L21.1724 13.374C21.9178 14.154 22.8364 14.544 23.9284 14.544C24.4051 14.544 24.7734 14.453 25.0334 14.271C25.3021 14.0803 25.4364 13.8507 25.4364 13.582C25.4364 13.348 25.3108 13.153 25.0594 12.997C24.8168 12.841 24.5091 12.7283 24.1364 12.659C23.7724 12.5897 23.3738 12.49 22.9404 12.36C22.5071 12.23 22.1041 12.0827 21.7314 11.918C21.3674 11.7533 21.0598 11.4933 20.8084 11.138C20.5658 10.7827 20.4444 10.3493 20.4444 9.838C20.4444 9.09267 20.7434 8.46867 21.3414 7.966C21.9394 7.45467 22.7368 7.199 23.7334 7.199C25.1114 7.199 26.2381 7.602 27.1134 8.408L26.0864 9.76C25.4018 9.12733 24.5611 8.811 23.5644 8.811C23.1744 8.811 22.8711 8.889 22.6544 9.045C22.4378 9.201 22.3294 9.41333 22.3294 9.682C22.3294 9.89 22.4508 10.0677 22.6934 10.215C22.9448 10.3537 23.2524 10.4577 23.6164 10.527C23.9891 10.5963 24.3878 10.7003 24.8124 10.839C25.2458 10.969 25.6444 11.1207 26.0084 11.294C26.3811 11.4587 26.6888 11.723 26.9314 12.087C27.1828 12.4423 27.3084 12.8713 27.3084 13.374C27.3084 14.206 27.0094 14.8777 26.4114 15.389C25.8221 15.9003 24.9641 16.156 23.8374 16.156ZM36.5104 16H34.4044L33.8714 14.531H30.1534L29.6074 16H27.5014L30.8554 7.329H33.1694L36.5104 16ZM33.3644 12.906L32.0124 9.175L30.6604 12.906H33.3644ZM42.0171 16H37.3111V7.329H41.8741C42.6628 7.329 43.2738 7.54567 43.7071 7.979C44.1491 8.40367 44.3701 8.92367 44.3701 9.539C44.3701 10.0677 44.2271 10.5097 43.9411 10.865C43.6551 11.2203 43.2998 11.4413 42.8751 11.528C43.3431 11.5973 43.7375 11.8357 44.0581 12.243C44.3788 12.6503 44.5391 13.1227 44.5391 13.66C44.5391 14.336 44.3181 14.895 43.8761 15.337C43.4341 15.779 42.8145 16 42.0171 16ZM41.4711 10.8C41.7831 10.8 42.0301 10.7133 42.2121 10.54C42.3941 10.3667 42.4851 10.1413 42.4851 9.864C42.4851 9.58667 42.3898 9.36133 42.1991 9.188C42.0171 9.006 41.7745 8.915 41.4711 8.915H39.1571V10.8H41.4711ZM41.5361 14.401C41.8828 14.401 42.1558 14.3143 42.3551 14.141C42.5545 13.959 42.6541 13.712 42.6541 13.4C42.6541 13.114 42.5545 12.8757 42.3551 12.685C42.1558 12.4857 41.8828 12.386 41.5361 12.386H39.1571V14.401H41.5361ZM51.4432 16H45.9312V7.329H47.7772V14.375H51.4432V16ZM58.8719 16H52.7359V7.329H58.8719V8.954H54.5819V10.787H58.7809V12.412H54.5819V14.375H58.8719V16ZM63.734 16H60.315V7.329H63.734C65.0947 7.329 66.1997 7.72767 67.049 8.525C67.907 9.32233 68.336 10.371 68.336 11.671C68.336 12.971 67.9114 14.0197 67.062 14.817C66.2127 15.6057 65.1034 16 63.734 16ZM63.734 14.375C64.566 14.375 65.2247 14.115 65.71 13.595C66.204 13.075 66.451 12.4337 66.451 11.671C66.451 10.8737 66.2127 10.2237 65.736 9.721C65.2594 9.20967 64.592 8.954 63.734 8.954H62.161V14.375H63.734Z" fill="#270052"/>
</svg>
