<svg width="101" height="23" viewBox="0 0 101 23" fill="none" xmlns="http://www.w3.org/2000/svg">
<rect width="95" height="23" rx="4" fill="#6BDB00"/>
<path d="M101 11.5L95 16L95 7L101 11.5Z" fill="#6BDB00"/>
<path d="M7.277 16H3.858V7.329H7.277C8.63767 7.329 9.74267 7.72767 10.592 8.525C11.45 9.32233 11.879 10.371 11.879 11.671C11.879 12.971 11.4543 14.0197 10.605 14.817C9.75567 15.6057 8.64633 16 7.277 16ZM7.277 14.375C8.109 14.375 8.76767 14.115 9.253 13.595C9.747 13.075 9.994 12.4337 9.994 11.671C9.994 10.8737 9.75567 10.2237 9.279 9.721C8.80233 9.20967 8.135 8.954 7.277 8.954H5.704V14.375H7.277ZM19.3251 16H13.1891V7.329H19.3251V8.954H15.0351V10.787H19.2341V12.412H15.0351V14.375H19.3251V16ZM23.8492 16.156C22.3065 16.156 21.0845 15.6967 20.1832 14.778L21.1842 13.374C21.9295 14.154 22.8482 14.544 23.9402 14.544C24.4168 14.544 24.7852 14.453 25.0452 14.271C25.3138 14.0803 25.4482 13.8507 25.4482 13.582C25.4482 13.348 25.3225 13.153 25.0712 12.997C24.8285 12.841 24.5208 12.7283 24.1482 12.659C23.7842 12.5897 23.3855 12.49 22.9522 12.36C22.5188 12.23 22.1158 12.0827 21.7432 11.918C21.3792 11.7533 21.0715 11.4933 20.8202 11.138C20.5775 10.7827 20.4562 10.3493 20.4562 9.838C20.4562 9.09267 20.7552 8.46867 21.3532 7.966C21.9512 7.45467 22.7485 7.199 23.7452 7.199C25.1232 7.199 26.2498 7.602 27.1252 8.408L26.0982 9.76C25.4135 9.12733 24.5728 8.811 23.5762 8.811C23.1862 8.811 22.8828 8.889 22.6662 9.045C22.4495 9.201 22.3412 9.41333 22.3412 9.682C22.3412 9.89 22.4625 10.0677 22.7052 10.215C22.9565 10.3537 23.2642 10.4577 23.6282 10.527C24.0008 10.5963 24.3995 10.7003 24.8242 10.839C25.2575 10.969 25.6562 11.1207 26.0202 11.294C26.3928 11.4587 26.7005 11.723 26.9432 12.087C27.1945 12.4423 27.3202 12.8713 27.3202 13.374C27.3202 14.206 27.0212 14.8777 26.4232 15.389C25.8338 15.9003 24.9758 16.156 23.8492 16.156ZM36.5221 16H34.4161L33.8831 14.531H30.1651L29.6191 16H27.5131L30.8671 7.329H33.1811L36.5221 16ZM33.3761 12.906L32.0241 9.175L30.6721 12.906H33.3761ZM40.346 16H38.487V8.954H35.952V7.329H42.868V8.954H40.346V16ZM45.8974 16H44.0514V7.329H45.8974V16ZM52.3637 16H50.0497L46.6957 7.329H48.8017L51.2067 13.998L53.5987 7.329H55.7047L52.3637 16ZM63.9821 16H61.8761L61.3431 14.531H57.6251L57.0791 16H54.9731L58.3271 7.329H60.6411L63.9821 16ZM60.8361 12.906L59.4841 9.175L58.1321 12.906H60.8361ZM68.2018 16H64.7828V7.329H68.2018C69.5625 7.329 70.6675 7.72767 71.5168 8.525C72.3748 9.32233 72.8038 10.371 72.8038 11.671C72.8038 12.971 72.3791 14.0197 71.5298 14.817C70.6805 15.6057 69.5711 16 68.2018 16ZM68.2018 14.375C69.0338 14.375 69.6925 14.115 70.1778 13.595C70.6718 13.075 70.9188 12.4337 70.9188 11.671C70.9188 10.8737 70.6805 10.2237 70.2038 9.721C69.7271 9.20967 69.0598 8.954 68.2018 8.954H66.6288V14.375H68.2018ZM78.2219 16.156C76.9132 16.156 75.8299 15.7357 74.9719 14.895C74.1225 14.0457 73.6979 12.971 73.6979 11.671C73.6979 10.371 74.1225 9.30067 74.9719 8.46C75.8299 7.61067 76.9132 7.186 78.2219 7.186C79.5392 7.186 80.6225 7.60633 81.4719 8.447C82.3299 9.28767 82.7589 10.3623 82.7589 11.671C82.7589 12.9797 82.3299 14.0543 81.4719 14.895C80.6225 15.7357 79.5392 16.156 78.2219 16.156ZM76.3109 13.712C76.7962 14.2493 77.4332 14.518 78.2219 14.518C79.0105 14.518 79.6475 14.2493 80.1329 13.712C80.6182 13.1747 80.8609 12.4943 80.8609 11.671C80.8609 10.8477 80.6182 10.1673 80.1329 9.63C79.6475 9.09267 79.0105 8.824 78.2219 8.824C77.4332 8.824 76.7962 9.09267 76.3109 9.63C75.8342 10.1673 75.5959 10.8477 75.5959 11.671C75.5959 12.4943 75.8342 13.1747 76.3109 13.712ZM87.1353 16.156C85.5926 16.156 84.3706 15.6967 83.4693 14.778L84.4703 13.374C85.2156 14.154 86.1343 14.544 87.2263 14.544C87.703 14.544 88.0713 14.453 88.3313 14.271C88.6 14.0803 88.7343 13.8507 88.7343 13.582C88.7343 13.348 88.6086 13.153 88.3573 12.997C88.1146 12.841 87.807 12.7283 87.4343 12.659C87.0703 12.5897 86.6716 12.49 86.2383 12.36C85.805 12.23 85.402 12.0827 85.0293 11.918C84.6653 11.7533 84.3576 11.4933 84.1063 11.138C83.8636 10.7827 83.7423 10.3493 83.7423 9.838C83.7423 9.09267 84.0413 8.46867 84.6393 7.966C85.2373 7.45467 86.0346 7.199 87.0313 7.199C88.4093 7.199 89.536 7.602 90.4113 8.408L89.3843 9.76C88.6996 9.12733 87.859 8.811 86.8623 8.811C86.4723 8.811 86.169 8.889 85.9523 9.045C85.7356 9.201 85.6273 9.41333 85.6273 9.682C85.6273 9.89 85.7486 10.0677 85.9913 10.215C86.2426 10.3537 86.5503 10.4577 86.9143 10.527C87.287 10.5963 87.6856 10.7003 88.1103 10.839C88.5436 10.969 88.9423 11.1207 89.3063 11.294C89.679 11.4587 89.9866 11.723 90.2293 12.087C90.4806 12.4423 90.6063 12.8713 90.6063 13.374C90.6063 14.206 90.3073 14.8777 89.7093 15.389C89.12 15.9003 88.262 16.156 87.1353 16.156Z" fill="#270052"/>
</svg>
