<svg width="79" height="23" viewBox="0 0 79 23" fill="none" xmlns="http://www.w3.org/2000/svg">
<rect width="73" height="23" rx="4" fill="#6BDB00"/>
<path d="M79 11.5L73 16L73 7L79 11.5Z" fill="#6BDB00"/>
<path d="M14.994 16H8.858V7.329H14.994V8.954H10.704V10.787H14.903V12.412H10.704V14.375H14.994V16ZM24.1981 16H22.4171L18.2831 10.345V16H16.4371V7.329H18.3351L22.3521 12.776V7.329H24.1981V16ZM33.9938 16H31.8878L31.3548 14.531H27.6368L27.0908 16H24.9848L28.3388 7.329H30.6528L33.9938 16ZM30.8478 12.906L29.4958 9.175L28.1438 12.906H30.8478ZM39.5005 16H34.7945V7.329H39.3575C40.1462 7.329 40.7572 7.54567 41.1905 7.979C41.6325 8.40367 41.8535 8.92367 41.8535 9.539C41.8535 10.0677 41.7105 10.5097 41.4245 10.865C41.1385 11.2203 40.7832 11.4413 40.3585 11.528C40.8265 11.5973 41.2209 11.8357 41.5415 12.243C41.8622 12.6503 42.0225 13.1227 42.0225 13.66C42.0225 14.336 41.8015 14.895 41.3595 15.337C40.9175 15.779 40.2979 16 39.5005 16ZM38.9545 10.8C39.2665 10.8 39.5135 10.7133 39.6955 10.54C39.8775 10.3667 39.9685 10.1413 39.9685 9.864C39.9685 9.58667 39.8732 9.36133 39.6825 9.188C39.5005 9.006 39.2579 8.915 38.9545 8.915H36.6405V10.8H38.9545ZM39.0195 14.401C39.3662 14.401 39.6392 14.3143 39.8385 14.141C40.0379 13.959 40.1375 13.712 40.1375 13.4C40.1375 13.114 40.0379 12.8757 39.8385 12.685C39.6392 12.4857 39.3662 12.386 39.0195 12.386H36.6405V14.401H39.0195ZM48.9266 16H43.4146V7.329H45.2606V14.375H48.9266V16ZM56.3553 16H50.2193V7.329H56.3553V8.954H52.0653V10.787H56.2643V12.412H52.0653V14.375H56.3553V16ZM61.2174 16H57.7984V7.329H61.2174C62.5781 7.329 63.6831 7.72767 64.5324 8.525C65.3904 9.32233 65.8194 10.371 65.8194 11.671C65.8194 12.971 65.3948 14.0197 64.5454 14.817C63.6961 15.6057 62.5868 16 61.2174 16ZM61.2174 14.375C62.0494 14.375 62.7081 14.115 63.1934 13.595C63.6874 13.075 63.9344 12.4337 63.9344 11.671C63.9344 10.8737 63.6961 10.2237 63.2194 9.721C62.7428 9.20967 62.0754 8.954 61.2174 8.954H59.6444V14.375H61.2174Z" fill="#270052"/>
</svg>
