<svg width="86" height="19" viewBox="0 0 86 19" fill="none" xmlns="http://www.w3.org/2000/svg">
<rect width="81" height="19" rx="4" fill="#6BDB00"/>
<path d="M86 9.49999L80.8317 13.2644L80.8317 5.73557L86 9.49999Z" fill="#6BDB00"/>
<path d="M9.29 13H6.66V6.33H9.29C10.3367 6.33 11.1867 6.63667 11.84 7.25C12.5 7.86333 12.83 8.67 12.83 9.67C12.83 10.67 12.5033 11.4767 11.85 12.09C11.1967 12.6967 10.3433 13 9.29 13ZM9.29 11.75C9.93 11.75 10.4367 11.55 10.81 11.15C11.19 10.75 11.38 10.2567 11.38 9.67C11.38 9.05667 11.1967 8.55667 10.83 8.17C10.4633 7.77667 9.95 7.58 9.29 7.58H8.08V11.75H9.29ZM18.5577 13H13.8377V6.33H18.5577V7.58H15.2577V8.99H18.4877V10.24H15.2577V11.75H18.5577V13ZM22.0378 13.12C20.8511 13.12 19.9111 12.7667 19.2178 12.06L19.9878 10.98C20.5611 11.58 21.2678 11.88 22.1078 11.88C22.4745 11.88 22.7578 11.81 22.9578 11.67C23.1645 11.5233 23.2678 11.3467 23.2678 11.14C23.2678 10.96 23.1711 10.81 22.9778 10.69C22.7911 10.57 22.5545 10.4833 22.2678 10.43C21.9878 10.3767 21.6811 10.3 21.3478 10.2C21.0145 10.1 20.7045 9.98667 20.4178 9.86C20.1378 9.73333 19.9011 9.53333 19.7078 9.26C19.5211 8.98667 19.4278 8.65333 19.4278 8.26C19.4278 7.68667 19.6578 7.20667 20.1178 6.82C20.5778 6.42667 21.1911 6.23 21.9578 6.23C23.0178 6.23 23.8845 6.54 24.5578 7.16L23.7678 8.2C23.2411 7.71333 22.5945 7.47 21.8278 7.47C21.5278 7.47 21.2945 7.53 21.1278 7.65C20.9611 7.77 20.8778 7.93333 20.8778 8.14C20.8778 8.3 20.9711 8.43667 21.1578 8.55C21.3511 8.65667 21.5878 8.73667 21.8678 8.79C22.1545 8.84333 22.4611 8.92333 22.7878 9.03C23.1211 9.13 23.4278 9.24667 23.7078 9.38C23.9945 9.50667 24.2311 9.71 24.4178 9.99C24.6111 10.2633 24.7078 10.5933 24.7078 10.98C24.7078 11.62 24.4778 12.1367 24.0178 12.53C23.5645 12.9233 22.9045 13.12 22.0378 13.12ZM31.7863 13H30.1663L29.7563 11.87H26.8963L26.4763 13H24.8562L27.4363 6.33H29.2163L31.7863 13ZM29.3663 10.62L28.3263 7.75L27.2863 10.62H29.3663ZM34.7277 13H33.2977V7.58H31.3477V6.33H36.6677V7.58H34.7277V13ZM38.998 13H37.578V6.33H38.998V13ZM43.9721 13H42.1921L39.6121 6.33H41.2321L43.0821 11.46L44.9221 6.33H46.5421L43.9721 13ZM52.9093 13H51.2893L50.8793 11.87H48.0193L47.5993 13H45.9793L48.5593 6.33H50.3393L52.9093 13ZM50.4893 10.62L49.4493 7.75L48.4093 10.62H50.4893ZM56.1552 13H53.5252V6.33H56.1552C57.2019 6.33 58.0519 6.63667 58.7052 7.25C59.3652 7.86333 59.6952 8.67 59.6952 9.67C59.6952 10.67 59.3686 11.4767 58.7152 12.09C58.0619 12.6967 57.2086 13 56.1552 13ZM56.1552 11.75C56.7952 11.75 57.3019 11.55 57.6752 11.15C58.0552 10.75 58.2452 10.2567 58.2452 9.67C58.2452 9.05667 58.0619 8.55667 57.6952 8.17C57.3286 7.77667 56.8152 7.58 56.1552 7.58H54.9452V11.75H56.1552ZM63.863 13.12C62.8563 13.12 62.023 12.7967 61.363 12.15C60.7096 11.4967 60.383 10.67 60.383 9.67C60.383 8.67 60.7096 7.84667 61.363 7.2C62.023 6.54667 62.8563 6.22 63.863 6.22C64.8763 6.22 65.7096 6.54333 66.363 7.19C67.023 7.83667 67.353 8.66333 67.353 9.67C67.353 10.6767 67.023 11.5033 66.363 12.15C65.7096 12.7967 64.8763 13.12 63.863 13.12ZM62.393 11.24C62.7663 11.6533 63.2563 11.86 63.863 11.86C64.4696 11.86 64.9596 11.6533 65.333 11.24C65.7063 10.8267 65.893 10.3033 65.893 9.67C65.893 9.03667 65.7063 8.51333 65.333 8.1C64.9596 7.68667 64.4696 7.48 63.863 7.48C63.2563 7.48 62.7663 7.68667 62.393 8.1C62.0263 8.51333 61.843 9.03667 61.843 9.67C61.843 10.3033 62.0263 10.8267 62.393 11.24ZM70.7195 13.12C69.5328 13.12 68.5928 12.7667 67.8995 12.06L68.6695 10.98C69.2428 11.58 69.9495 11.88 70.7895 11.88C71.1561 11.88 71.4395 11.81 71.6395 11.67C71.8461 11.5233 71.9495 11.3467 71.9495 11.14C71.9495 10.96 71.8528 10.81 71.6595 10.69C71.4728 10.57 71.2361 10.4833 70.9495 10.43C70.6695 10.3767 70.3628 10.3 70.0295 10.2C69.6961 10.1 69.3861 9.98667 69.0995 9.86C68.8195 9.73333 68.5828 9.53333 68.3895 9.26C68.2028 8.98667 68.1095 8.65333 68.1095 8.26C68.1095 7.68667 68.3395 7.20667 68.7995 6.82C69.2595 6.42667 69.8728 6.23 70.6395 6.23C71.6995 6.23 72.5661 6.54 73.2395 7.16L72.4495 8.2C71.9228 7.71333 71.2761 7.47 70.5095 7.47C70.2095 7.47 69.9761 7.53 69.8095 7.65C69.6428 7.77 69.5595 7.93333 69.5595 8.14C69.5595 8.3 69.6528 8.43667 69.8395 8.55C70.0328 8.65667 70.2695 8.73667 70.5495 8.79C70.8361 8.84333 71.1428 8.92333 71.4695 9.03C71.8028 9.13 72.1095 9.24667 72.3895 9.38C72.6761 9.50667 72.9128 9.71 73.0995 9.99C73.2928 10.2633 73.3895 10.5933 73.3895 10.98C73.3895 11.62 73.1595 12.1367 72.6995 12.53C72.2461 12.9233 71.5861 13.12 70.7195 13.12Z" fill="#270052"/>
</svg>
