<svg width="81" height="23" viewBox="0 0 81 23" fill="none" xmlns="http://www.w3.org/2000/svg">
<rect width="76.1881" height="23" rx="4" fill="#6BDB00"/>
<path d="M81 11.5L76.1881 16L76.1881 7L81 11.5Z" fill="#6BDB00"/>
<path d="M33.892 5.587C33.827 6.003 33.801 6.497 33.814 6.913C33.853 9.058 33.944 12.633 33.97 15.259C33.983 16.091 33.502 16.572 32.514 16.572C31.721 16.572 31.006 16.546 30.265 16.494L30.109 14.804C30.707 14.895 31.409 14.947 31.851 14.947C32.176 14.947 32.293 14.778 32.293 14.414C32.293 12.62 32.267 9.058 32.163 6.913C32.124 6.354 32.098 5.938 32.033 5.587H33.892ZM26.469 7.758C26.833 7.797 27.457 7.849 27.899 7.849C28.809 7.849 34.815 7.849 35.452 7.849C35.868 7.849 36.479 7.784 36.791 7.745V9.461C36.388 9.448 35.881 9.435 35.53 9.435C35.023 9.435 28.666 9.435 27.951 9.435C27.47 9.435 26.924 9.461 26.469 9.487V7.758ZM25.767 13.946C28.484 12.646 30.759 10.644 31.695 9.11H32.54L32.553 10.501C31.5 12.074 29.199 14.115 26.963 15.298L25.767 13.946ZM41.133 6.12C42.03 6.731 43.72 8.083 44.487 8.876L43.161 10.228C42.485 9.5 40.847 8.083 39.898 7.433L41.133 6.12ZM39.495 14.778C41.536 14.492 43.213 13.829 44.474 13.088C46.697 11.762 48.387 9.786 49.219 8.031L50.22 9.851C49.245 11.619 47.516 13.413 45.423 14.674C44.097 15.467 42.42 16.182 40.6 16.494L39.495 14.778Z" fill="#270052"/>
</svg>
