<svg width="79" height="23" viewBox="0 0 79 23" fill="none" xmlns="http://www.w3.org/2000/svg">
<rect width="73" height="23" rx="4" fill="#6BDB00"/>
<path d="M79 11.5L73 16L73 7L79 11.5Z" fill="#6BDB00"/>
<path d="M13.944 16H11.838L11.305 14.531H7.587L7.041 16H4.935L8.289 7.329H10.603L13.944 16ZM10.798 12.906L9.446 9.175L8.094 12.906H10.798ZM17.7678 16H15.9088V8.954H13.3738V7.329H20.2898V8.954H17.7678V16ZM23.3192 16H21.4732V7.329H23.3192V16ZM29.7856 16H27.4716L24.1176 7.329H26.2236L28.6286 13.998L31.0206 7.329H33.1266L29.7856 16ZM41.404 16H39.298L38.765 14.531H35.047L34.501 16H32.395L35.749 7.329H38.063L41.404 16ZM38.258 12.906L36.906 9.175L35.554 12.906H38.258ZM45.6237 16H42.2047V7.329H45.6237C46.9843 7.329 48.0893 7.72767 48.9387 8.525C49.7967 9.32233 50.2257 10.371 50.2257 11.671C50.2257 12.971 49.801 14.0197 48.9517 14.817C48.1023 15.6057 46.993 16 45.6237 16ZM45.6237 14.375C46.4557 14.375 47.1143 14.115 47.5997 13.595C48.0937 13.075 48.3407 12.4337 48.3407 11.671C48.3407 10.8737 48.1023 10.2237 47.6257 9.721C47.149 9.20967 46.4817 8.954 45.6237 8.954H44.0507V14.375H45.6237ZM55.6437 16.156C54.3351 16.156 53.2517 15.7357 52.3937 14.895C51.5444 14.0457 51.1197 12.971 51.1197 11.671C51.1197 10.371 51.5444 9.30067 52.3937 8.46C53.2517 7.61067 54.3351 7.186 55.6437 7.186C56.9611 7.186 58.0444 7.60633 58.8937 8.447C59.7517 9.28767 60.1807 10.3623 60.1807 11.671C60.1807 12.9797 59.7517 14.0543 58.8937 14.895C58.0444 15.7357 56.9611 16.156 55.6437 16.156ZM53.7327 13.712C54.2181 14.2493 54.8551 14.518 55.6437 14.518C56.4324 14.518 57.0694 14.2493 57.5547 13.712C58.0401 13.1747 58.2827 12.4943 58.2827 11.671C58.2827 10.8477 58.0401 10.1673 57.5547 9.63C57.0694 9.09267 56.4324 8.824 55.6437 8.824C54.8551 8.824 54.2181 9.09267 53.7327 9.63C53.2561 10.1673 53.0177 10.8477 53.0177 11.671C53.0177 12.4943 53.2561 13.1747 53.7327 13.712ZM64.5572 16.156C63.0145 16.156 61.7925 15.6967 60.8912 14.778L61.8922 13.374C62.6375 14.154 63.5562 14.544 64.6482 14.544C65.1248 14.544 65.4932 14.453 65.7532 14.271C66.0218 14.0803 66.1562 13.8507 66.1562 13.582C66.1562 13.348 66.0305 13.153 65.7792 12.997C65.5365 12.841 65.2288 12.7283 64.8562 12.659C64.4922 12.5897 64.0935 12.49 63.6602 12.36C63.2268 12.23 62.8238 12.0827 62.4512 11.918C62.0872 11.7533 61.7795 11.4933 61.5282 11.138C61.2855 10.7827 61.1642 10.3493 61.1642 9.838C61.1642 9.09267 61.4632 8.46867 62.0612 7.966C62.6592 7.45467 63.4565 7.199 64.4532 7.199C65.8312 7.199 66.9578 7.602 67.8332 8.408L66.8062 9.76C66.1215 9.12733 65.2808 8.811 64.2842 8.811C63.8942 8.811 63.5908 8.889 63.3742 9.045C63.1575 9.201 63.0492 9.41333 63.0492 9.682C63.0492 9.89 63.1705 10.0677 63.4132 10.215C63.6645 10.3537 63.9722 10.4577 64.3362 10.527C64.7088 10.5963 65.1075 10.7003 65.5322 10.839C65.9655 10.969 66.3642 11.1207 66.7282 11.294C67.1008 11.4587 67.4085 11.723 67.6512 12.087C67.9025 12.4423 68.0282 12.8713 68.0282 13.374C68.0282 14.206 67.7292 14.8777 67.1312 15.389C66.5418 15.9003 65.6838 16.156 64.5572 16.156Z" fill="#270052"/>
</svg>
