<svg width="81" height="23" viewBox="0 0 81 23" fill="none" xmlns="http://www.w3.org/2000/svg">
<rect width="76.1881" height="23" rx="4" fill="#6BDB00"/>
<path d="M81 11.5L76.1881 16L76.1881 7L81 11.5Z" fill="#6BDB00"/>
<path d="M6.29 15H3.66V8.33H6.29C7.33667 8.33 8.18667 8.63667 8.84 9.25C9.5 9.86333 9.83 10.67 9.83 11.67C9.83 12.67 9.50333 13.4767 8.85 14.09C8.19667 14.6967 7.34333 15 6.29 15ZM6.29 13.75C6.93 13.75 7.43667 13.55 7.81 13.15C8.19 12.75 8.38 12.2567 8.38 11.67C8.38 11.0567 8.19667 10.5567 7.83 10.17C7.46333 9.77667 6.95 9.58 6.29 9.58H5.08V13.75H6.29ZM15.5577 15H10.8377V8.33H15.5577V9.58H12.2577V10.99H15.4877V12.24H12.2577V13.75H15.5577V15ZM19.0378 15.12C17.8511 15.12 16.9111 14.7667 16.2178 14.06L16.9878 12.98C17.5611 13.58 18.2678 13.88 19.1078 13.88C19.4745 13.88 19.7578 13.81 19.9578 13.67C20.1645 13.5233 20.2678 13.3467 20.2678 13.14C20.2678 12.96 20.1711 12.81 19.9778 12.69C19.7911 12.57 19.5545 12.4833 19.2678 12.43C18.9878 12.3767 18.6811 12.3 18.3478 12.2C18.0145 12.1 17.7045 11.9867 17.4178 11.86C17.1378 11.7333 16.9011 11.5333 16.7078 11.26C16.5211 10.9867 16.4278 10.6533 16.4278 10.26C16.4278 9.68667 16.6578 9.20667 17.1178 8.82C17.5778 8.42667 18.1911 8.23 18.9578 8.23C20.0178 8.23 20.8845 8.54 21.5578 9.16L20.7678 10.2C20.2411 9.71333 19.5945 9.47 18.8278 9.47C18.5278 9.47 18.2945 9.53 18.1278 9.65C17.9611 9.77 17.8778 9.93333 17.8778 10.14C17.8778 10.3 17.9711 10.4367 18.1578 10.55C18.3511 10.6567 18.5878 10.7367 18.8678 10.79C19.1545 10.8433 19.4611 10.9233 19.7878 11.03C20.1211 11.13 20.4278 11.2467 20.7078 11.38C20.9945 11.5067 21.2311 11.71 21.4178 11.99C21.6111 12.2633 21.7078 12.5933 21.7078 12.98C21.7078 13.62 21.4778 14.1367 21.0178 14.53C20.5645 14.9233 19.9045 15.12 19.0378 15.12ZM28.7863 15H27.1663L26.7563 13.87H23.8963L23.4763 15H21.8562L24.4363 8.33H26.2163L28.7863 15ZM26.3663 12.62L25.3263 9.75L24.2863 12.62H26.3663ZM32.2904 15.12C31.2771 15.12 30.4304 14.8 29.7504 14.16C29.0771 13.5133 28.7404 12.6833 28.7404 11.67C28.7404 10.6567 29.0771 9.83 29.7504 9.19C30.4304 8.54333 31.2771 8.22 32.2904 8.22C33.5371 8.22 34.4671 8.76333 35.0804 9.85L33.8604 10.45C33.7137 10.17 33.4971 9.94 33.2104 9.76C32.9304 9.57333 32.6237 9.48 32.2904 9.48C31.6837 9.48 31.1837 9.68667 30.7904 10.1C30.3971 10.5133 30.2004 11.0367 30.2004 11.67C30.2004 12.3033 30.3971 12.8267 30.7904 13.24C31.1837 13.6533 31.6837 13.86 32.2904 13.86C32.6237 13.86 32.9304 13.77 33.2104 13.59C33.4971 13.41 33.7137 13.1767 33.8604 12.89L35.0804 13.48C34.4471 14.5733 33.5171 15.12 32.2904 15.12ZM38.8956 15H37.4656V9.58H35.5156V8.33H40.8356V9.58H38.8956V15ZM43.1659 15H41.7459V8.33H43.1659V15ZM48.1401 15H46.3601L43.7801 8.33H45.4001L47.2501 13.46L49.0901 8.33H50.7101L48.1401 15ZM57.0773 15H55.4573L55.0473 13.87H52.1873L51.7673 15H50.1473L52.7273 8.33H54.5073L57.0773 15ZM54.6573 12.62L53.6173 9.75L52.5773 12.62H54.6573ZM60.3232 15H57.6932V8.33H60.3232C61.3699 8.33 62.2199 8.63667 62.8732 9.25C63.5332 9.86333 63.8632 10.67 63.8632 11.67C63.8632 12.67 63.5365 13.4767 62.8832 14.09C62.2299 14.6967 61.3765 15 60.3232 15ZM60.3232 13.75C60.9632 13.75 61.4699 13.55 61.8432 13.15C62.2232 12.75 62.4132 12.2567 62.4132 11.67C62.4132 11.0567 62.2299 10.5567 61.8632 10.17C61.4965 9.77667 60.9832 9.58 60.3232 9.58H59.1132V13.75H60.3232ZM68.0309 15.12C67.0243 15.12 66.1909 14.7967 65.5309 14.15C64.8776 13.4967 64.5509 12.67 64.5509 11.67C64.5509 10.67 64.8776 9.84667 65.5309 9.2C66.1909 8.54667 67.0243 8.22 68.0309 8.22C69.0443 8.22 69.8776 8.54333 70.5309 9.19C71.1909 9.83667 71.5209 10.6633 71.5209 11.67C71.5209 12.6767 71.1909 13.5033 70.5309 14.15C69.8776 14.7967 69.0443 15.12 68.0309 15.12ZM66.5609 13.24C66.9343 13.6533 67.4243 13.86 68.0309 13.86C68.6376 13.86 69.1276 13.6533 69.5009 13.24C69.8743 12.8267 70.0609 12.3033 70.0609 11.67C70.0609 11.0367 69.8743 10.5133 69.5009 10.1C69.1276 9.68667 68.6376 9.48 68.0309 9.48C67.4243 9.48 66.9343 9.68667 66.5609 10.1C66.1943 10.5133 66.0109 11.0367 66.0109 11.67C66.0109 12.3033 66.1943 12.8267 66.5609 13.24Z" fill="#270052"/>
</svg>
